<svg width="24" height="24" fill="none" xmlns="http://www.w3.org/2000/svg"><path fill-rule="evenodd" clip-rule="evenodd" d="M23.525 3.198c-.233-.592-.771-1.427-1.535-2.014A5.03 5.03 0 0 0 20.3.305C19.53.077 18.582 0 17.4 0H6.6C5.42 0 4.47.077 3.7.305a5.03 5.03 0 0 0-1.69.879C1.246 1.77.708 2.606.475 3.198.005 4.392 0 5.747 0 6.6v10.8c0 .853.005 2.208.475 3.402.233.592.771 1.427 1.535 2.015.44.339.967.663 1.69.878.77.228 1.719.305 2.9.305h10.8c1.181 0 2.13-.077 2.9-.305a5.03 5.03 0 0 0 1.69-.878c.764-.588 1.302-1.423 1.535-2.015.47-1.194.475-2.549.475-3.402V6.6c0-.853-.005-2.208-.475-3.402Zm-6.017 13.309a2.223 2.223 0 0 1-.35.823c-.173.25-.396.454-.656.608a2.617 2.617 0 0 1-.834.303c-.553.111-.931.136-1.287.065a1.793 1.793 0 0 1-.866-.44 1.89 1.89 0 0 1-.606-1.188 1.89 1.89 0 0 1 .512-1.492 2.08 2.08 0 0 1 .778-.5c.348-.135.731-.216 1.32-.335.156-.03.31-.062.466-.093.204-.041.38-.094.52-.266.143-.174.145-.382.145-.592V8.111c0-.405-.181-.515-.567-.44-.277.053-6.206 1.25-6.206 1.25-.335.08-.452.19-.452.604v7.75c0 .304-.016.574-.08.878a2.226 2.226 0 0 1-.35.823c-.173.25-.396.454-.656.607a2.624 2.624 0 0 1-.834.308c-.553.112-.931.137-1.287.065a1.799 1.799 0 0 1-.866-.444 1.872 1.872 0 0 1-.591-1.188 1.88 1.88 0 0 1 .497-1.492c.198-.207.446-.372.778-.5.348-.135.731-.216 1.32-.335.156-.03.311-.062.466-.094.204-.04.38-.093.52-.265.142-.173.158-.38.158-.588V6.125c0-.12.01-.2.017-.24a.725.725 0 0 1 .24-.464.996.996 0 0 1 .444-.2h.003l7.133-1.44c.062-.012.578-.104.636-.109.385-.033.602.22.602.631v11.322c0 .304-.003.578-.067.882Z" fill="#000"/></svg>