<svg width="24" height="24" fill="none" xmlns="http://www.w3.org/2000/svg"><path fill-rule="evenodd" clip-rule="evenodd" d="M24 6.326h-4.376V5H24v1.326ZM19.624 8.05H24V6.724h-4.376V8.05Zm-9.812 0h4.376V6.725H9.812v1.327Zm4.376 1.724H9.812V8.448h4.376v1.326ZM0 11.498h4.376v-1.326H0v1.326Zm4.376 1.724H0v-1.326h4.376v1.326ZM0 14.945h4.376V13.62H0v1.325Zm4.376 1.724H0v-1.326h4.376v1.326Zm0 1.724H0v-1.326h4.376v1.326Zm4.906 0H4.906v-1.326h4.376v1.326Zm-4.376-1.724h4.376v-1.326H4.906v1.326Zm4.376-1.724H4.906V13.62h4.376v1.325Zm.53 3.448h4.376v-1.326H9.812v1.326Zm4.376-1.724H9.812v-1.326h4.376v1.326Zm-4.376-1.724h4.376V13.62H9.812v1.325Zm4.376-1.723H9.812v-1.326h4.376v1.326Zm-4.376-1.724h4.376v-1.326H9.812v1.326Zm9.282 6.895h-4.376v-1.326h4.376v1.326Zm-4.376-1.724h4.376v-1.326h-4.376v1.326Zm4.376-1.724h-4.376V13.62h4.376v1.325Zm-4.376-1.723h4.376v-1.326h-4.376v1.326Zm4.376-1.724h-4.376v-1.326h4.376v1.326Zm.53 6.895H24v-1.326h-4.376v1.326ZM24 16.669h-4.376v-1.326H24v1.326Zm-4.376-1.724H24V13.62h-4.376v1.326ZM24 13.222h-4.376v-1.326H24v1.326Zm-4.376-1.724H24v-1.326h-4.376v1.326ZM24 9.774h-4.376V8.448H24v1.326Z" fill="#000"/></svg>