<svg width="109" height="24" fill="none" xmlns="http://www.w3.org/2000/svg"><path fill-rule="evenodd" clip-rule="evenodd" d="M108.123 14.437h-.275c-.935 0-1.552-.274-2.197-1.282-.63-1.001-1.685-2.687-1.685-2.687l4.587-6.39h-3.983l-3.642 5.07V0h-3.329v17.565h3.329V11.99s1.864 2.928 2.431 3.83c.912 1.393 2.129 1.76 4.149 1.76l.973-.002v-3.14h-.358Zm-30.491.427h-.275c-.935 0-1.552-.275-2.198-1.282l-1.684-2.687 4.587-6.391H74.08l-3.642 5.071V.426h-3.329v17.566h3.329v-5.576s1.864 2.928 2.43 3.83c.913 1.393 2.13 1.761 4.15 1.761l.973-.002v-3.14l-.358-.001Zm-52.085 3.172c-2.073 0-3.766-.38-5.135-1.788l2.13-2.13c.704.704 1.94.95 3.024.95 1.312 0 1.94-.436 1.94-1.216 0-.324-.076-.59-.266-.8-.171-.172-.457-.306-.894-.362l-1.636-.228c-1.198-.171-2.11-.57-2.72-1.198-.627-.647-.931-1.56-.931-2.72 0-2.472 1.864-4.28 4.944-4.28 1.94 0 3.405.457 4.565 1.617l-2.092 2.092c-.808-.807-1.853-.802-2.463-.799h-.105c-1.16 0-1.635.667-1.635 1.256a.89.89 0 0 0 .266.627c.171.172.456.343.932.4l1.635.228c1.218.171 2.092.551 2.663 1.122.723.704 1.008 1.711 1.008 2.97 0 2.757-2.377 4.259-5.23 4.259Zm11.533 0c1.655 0 2.796-.533 3.785-1.522 1.374-1.373 1.372-3.188 1.37-5.139v-.451c.002-1.95.004-3.764-1.37-5.138-.989-.989-2.13-1.521-3.785-1.521-1.654 0-2.795.532-3.784 1.521-1.374 1.374-1.372 3.188-1.37 5.137v.453c-.002 1.95-.004 3.765 1.37 5.138.989.99 2.13 1.522 3.784 1.522ZM36.95 7.25c.609 0 1.084.266 1.332.59.304.398.494.855.494 3.327 0 2.475-.19 2.912-.494 3.312-.248.323-.723.608-1.332.608-.608 0-1.084-.285-1.33-.608-.305-.4-.495-.837-.495-3.312 0-2.472.19-2.929.494-3.328.247-.323.723-.59 1.331-.59Zm50.504 9.478c.989.989 2.187 1.521 3.766 1.521 2.567 0 4.64-1.427 5.135-4.412H92.97c-.21.76-.628 1.446-1.731 1.446-.609 0-1.065-.248-1.313-.571-.304-.4-.513-.875-.513-3.35 0-2.472.21-2.947.513-3.347.248-.323.704-.57 1.313-.57 1.103 0 1.521.684 1.73 1.445h3.386c-.495-2.986-2.568-4.412-5.136-4.412-1.578 0-2.776.533-3.765 1.522-1.372 1.373-1.37 3.187-1.368 5.137v.451c-.002 1.95-.004 3.767 1.368 5.14Zm-25.39 2.192v-1.293a3.908 3.908 0 0 1-1.762.41c-1.578 0-2.776-.534-3.764-1.523-1.374-1.372-1.372-3.188-1.37-5.136v-.456c-.002-1.95-.004-3.763 1.37-5.135.988-.99 2.186-1.522 3.764-1.522 1.2 0 2.403.357 3.34 1.069 1.05.798 1.768 2.035 1.768 3.594l.011 9.998c0 3.322-1.806 5.053-5.119 5.074l-1.476-.005v-2.97l1.21-.007c.797 0 2.028-.316 2.028-2.098Zm-2.971-4.404c.247.324.703.571 1.312.571 1.084 0 1.506-.662 1.72-1.406V8.657c-.214-.746-.636-1.407-1.72-1.407-.609 0-1.065.247-1.312.57-.305.4-.514.875-.514 3.348s.21 2.95.514 3.348Zm-5.343-4.264-.009 7.668-3.326-.005.006-7.655c0-1.745-.182-1.983-.475-2.366l-.02-.026a1.691 1.691 0 0 0-1.33-.636c-.61 0-1.085.312-1.332.636-.305.399-.495.653-.495 2.384l-.003 7.669H43.44l.001-7.67v-.143c-.002-1.277-.005-2.947 1.37-4.322.989-.989 2.13-1.521 3.784-1.521 1.656 0 2.797.532 3.785 1.521 1.374 1.374 1.372 2.966 1.37 4.318v.148Zm25.512-7.41 3.316.006V.427h-3.316v2.415Zm-.213 1.636 3.384.002v8.27c.006 1.393.946 2.084 2.051 2.084l.392.001v3.147l-.704.007c-3.378-.021-5.119-1.872-5.119-5.126l-.004-8.385ZM3.33 6.59h-.98L0 17.704h.872l.389-1.836h.03c.136.664.447 1.172.935 1.525.488.353 1.074.53 1.759.53.685 0 1.292-.154 1.82-.46.53-.306.974-.703 1.332-1.19.358-.488.63-1.038.817-1.65.187-.613.28-1.225.28-1.837 0-.478-.062-.921-.187-1.331a2.889 2.889 0 0 0-.568-1.059 2.697 2.697 0 0 0-.95-.7c-.378-.171-.827-.257-1.346-.257-.622 0-1.17.15-1.642.452-.472.3-.848.7-1.128 1.198h-.031l.949-4.498Zm2 10.117c-.42.27-.91.405-1.47.405a2.26 2.26 0 0 1-.974-.195 1.973 1.973 0 0 1-.684-.521 2.145 2.145 0 0 1-.405-.77 3.334 3.334 0 0 1-.133-.958c0-.456.07-.942.21-1.455.14-.514.348-.989.623-1.425A3.815 3.815 0 0 1 3.526 10.7a2.4 2.4 0 0 1 1.424-.436c.81 0 1.396.228 1.759.685.363.457.544 1.059.544 1.806 0 .487-.072.99-.217 1.51-.146.518-.361.988-.646 1.408-.286.42-.639.765-1.059 1.035Zm3.93 3.129c-.27 0-.544-.016-.825-.047l-.186.794c.145.01.288.026.428.047.14.02.277.03.412.03.882 0 1.53-.357 1.946-1.073l5.712-9.915H15.69l-3.705 6.817h-.03l-1.153-6.817H9.775l1.479 8.031-.732 1.261c-.124.208-.29.405-.498.592-.207.187-.462.28-.763.28Z" fill="#000"/></svg>