<svg width="24" height="24" fill="none" xmlns="http://www.w3.org/2000/svg"><path fill-rule="evenodd" clip-rule="evenodd" d="M0 16.076c0 .302.108.53.324.686.216.154.447.209.692.164.231-.046.393-.129.486-.25.093-.12.14-.32.14-.6v-3.284a.815.815 0 0 0-.24-.595.792.792 0 0 0-.587-.243.78.78 0 0 0-.575.243.815.815 0 0 0-.24.595v3.284Zm2.569 1.405c0 .219.076.383.229.492.152.11.348.165.586.165.246 0 .445-.055.597-.165.153-.11.23-.273.23-.492V9.825c0-.227-.08-.421-.24-.584a.792.792 0 0 0-.587-.243.78.78 0 0 0-.575.243.801.801 0 0 0-.24.584v7.656Zm2.557.362c0 .219.078.383.235.493.156.11.357.164.603.164.238 0 .433-.055.586-.164.153-.11.229-.274.229-.493v-6.988a.834.834 0 0 0-.24-.6.77.77 0 0 0-.575-.25.801.801 0 0 0-.592.25.824.824 0 0 0-.246.6v6.988Zm2.569.034c0 .415.275.623.826.623.551 0 .827-.208.827-.623V6.552c0-.635-.19-.993-.57-1.076-.246-.06-.488.011-.726.215s-.357.49-.357.86v11.326Zm2.613.329V5.883c0-.392.116-.626.346-.702a6.47 6.47 0 0 1 4.668.634 6.592 6.592 0 0 1 2.385 2.226c.607.94.958 1.976 1.055 3.109a3.618 3.618 0 0 1 1.452-.295c1.042 0 1.934.374 2.675 1.121A3.692 3.692 0 0 1 24 14.672c0 1.057-.37 1.96-1.111 2.707-.741.747-1.629 1.121-2.664 1.121l-9.716-.011a.262.262 0 0 1-.15-.125.338.338 0 0 1-.05-.159Z" fill="#000"/></svg>