<svg width="24" height="24" fill="none" xmlns="http://www.w3.org/2000/svg"><path fill-rule="evenodd" clip-rule="evenodd" d="M9.522 14.635V7.844l6.484 3.407-6.484 3.384ZM23.76 6.667s-.235-1.665-.954-2.399c-.913-.963-1.936-.967-2.405-1.023C17.043 3 12.005 3 12.005 3h-.01s-5.038 0-8.396.245c-.47.056-1.492.06-2.406 1.023-.719.734-.953 2.4-.953 2.4S0 8.622 0 10.577v1.835c0 1.956.24 3.912.24 3.912s.234 1.665.953 2.399c.914.962 2.113.932 2.647 1.033C5.76 19.943 12 20 12 20s5.043-.008 8.401-.252c.47-.057 1.492-.062 2.405-1.024.72-.734.954-2.4.954-2.4s.24-1.955.24-3.911v-1.834c0-1.956-.24-3.912-.24-3.912Z" fill="#000"/></svg>